# xmcd
#
# Track frame offsets: 
#        150
#        12685
#        24806
#        34448
#        42697
#        50708
#        62282
#        68491
#        79300
#        90446
#        98592
#        108314
#        119484
#        129257
#        139384
#        147005
#
# Disc length: 2036 seconds
#
# Revision: 0
# Processed by: cddbd v1.5.1PL2 Copyright (c) Steve Scherf et al.
# Submitted via: ExactAudioCopy v0.95a5
#
DISCID=d907f210
DTITLE=Christine Jones - Look Here Blues
DYEAR=1965
DGENRE=Blues
TTITLE0=Lonesome With The Blues
TTITLE1=Motherless Child
TTITLE2=A Man Goin' Round Taking Names
TTITLE3=The Lord's Walk
TTITLE4=A Raging Storm
TTITLE5=Nelly Bly
TTITLE6=Look Here Blues
TTITLE7=Sinner Man
TTITLE8=Don't Know Where To Go
TTITLE9=The Captain And I
TTITLE10=Wayfaring Stranger
TTITLE11=Tree Top All Papa
TTITLE12=The Grown-Ups
TTITLE13=Goin' To Paris
TTITLE14=We're All Blues
TTITLE15=Auction Block
EXTD=
EXTT0=
EXTT1=
EXTT2=
EXTT3=
EXTT4=
EXTT5=
EXTT6=
EXTT7=
EXTT8=
EXTT9=
EXTT10=
EXTT11=
EXTT12=
EXTT13=
EXTT14=
EXTT15=
PLAYORDER=
